<svg xmlns:xlink="http://www.w3.org/1999/xlink" width="115.238ex" height="19.843ex" style="font-size: 15px; vertical-align: -9.338ex;" viewBox="0 -4522.8 49616.3 8543.3" role="img" focusable="false" xmlns="http://www.w3.org/2000/svg">
<defs>
<path stroke-width="1" id="E1-MJMATHI-3B2" d="M29 -194Q23 -188 23 -186Q23 -183 102 134T186 465Q208 533 243 584T309 658Q365 705 429 705H431Q493 705 533 667T573 570Q573 465 469 396L482 383Q533 332 533 252Q533 139 448 65T257 -10Q227 -10 203 -2T165 17T143 40T131 59T126 65L62 -188Q60 -194 42 -194H29ZM353 431Q392 431 427 419L432 422Q436 426 439 429T449 439T461 453T472 471T484 495T493 524T501 560Q503 569 503 593Q503 611 502 616Q487 667 426 667Q384 667 347 643T286 582T247 514T224 455Q219 439 186 308T152 168Q151 163 151 147Q151 99 173 68Q204 26 260 26Q302 26 349 51T425 137Q441 171 449 214T457 279Q457 337 422 372Q380 358 347 358H337Q258 358 258 389Q258 396 261 403Q275 431 353 431Z"></path>
<path stroke-width="1" id="E1-MJMAIN-5E" d="M112 560L249 694L257 686Q387 562 387 560L361 531Q359 532 303 581L250 627L195 580Q182 569 169 557T148 538L140 532Q138 530 125 546L112 560Z"></path>
<path stroke-width="1" id="E1-MJMAIN-3D" d="M56 347Q56 360 70 367H707Q722 359 722 347Q722 336 708 328L390 327H72Q56 332 56 347ZM56 153Q56 168 72 173H708Q722 163 722 153Q722 140 707 133H70Q56 140 56 153Z"></path>
<path stroke-width="1" id="E1-MJMAIN-5B" d="M118 -250V750H255V710H158V-210H255V-250H118Z"></path>
<path stroke-width="1" id="E1-MJMAIN-31" d="M213 578L200 573Q186 568 160 563T102 556H83V602H102Q149 604 189 617T245 641T273 663Q275 666 285 666Q294 666 302 660V361L303 61Q310 54 315 52T339 48T401 46H427V0H416Q395 3 257 3Q121 3 100 0H88V46H114Q136 46 152 46T177 47T193 50T201 52T207 57T213 61V578Z"></path>
<path stroke-width="1" id="E1-MJMAIN-32" d="M109 429Q82 429 66 447T50 491Q50 562 103 614T235 666Q326 666 387 610T449 465Q449 422 429 383T381 315T301 241Q265 210 201 149L142 93L218 92Q375 92 385 97Q392 99 409 186V189H449V186Q448 183 436 95T421 3V0H50V19V31Q50 38 56 46T86 81Q115 113 136 137Q145 147 170 174T204 211T233 244T261 278T284 308T305 340T320 369T333 401T340 431T343 464Q343 527 309 573T212 619Q179 619 154 602T119 569T109 550Q109 549 114 549Q132 549 151 535T170 489Q170 464 154 447T109 429Z"></path>
<path stroke-width="1" id="E1-MJMAIN-22EF" d="M78 250Q78 274 95 292T138 310Q162 310 180 294T199 251Q199 226 182 208T139 190T96 207T78 250ZM525 250Q525 274 542 292T585 310Q609 310 627 294T646 251Q646 226 629 208T586 190T543 207T525 250ZM972 250Q972 274 989 292T1032 310Q1056 310 1074 294T1093 251Q1093 226 1076 208T1033 190T990 207T972 250Z"></path>
<path stroke-width="1" id="E1-MJMATHI-50" d="M287 628Q287 635 230 637Q206 637 199 638T192 648Q192 649 194 659Q200 679 203 681T397 683Q587 682 600 680Q664 669 707 631T751 530Q751 453 685 389Q616 321 507 303Q500 302 402 301H307L277 182Q247 66 247 59Q247 55 248 54T255 50T272 48T305 46H336Q342 37 342 35Q342 19 335 5Q330 0 319 0Q316 0 282 1T182 2Q120 2 87 2T51 1Q33 1 33 11Q33 13 36 25Q40 41 44 43T67 46Q94 46 127 49Q141 52 146 61Q149 65 218 339T287 628ZM645 554Q645 567 643 575T634 597T609 619T560 635Q553 636 480 637Q463 637 445 637T416 636T404 636Q391 635 386 627Q384 621 367 550T332 412T314 344Q314 342 395 342H407H430Q542 342 590 392Q617 419 631 471T645 554Z"></path>
<path stroke-width="1" id="E1-MJMATHI-69" d="M184 600Q184 624 203 642T247 661Q265 661 277 649T290 619Q290 596 270 577T226 557Q211 557 198 567T184 600ZM21 287Q21 295 30 318T54 369T98 420T158 442Q197 442 223 419T250 357Q250 340 236 301T196 196T154 83Q149 61 149 51Q149 26 166 26Q175 26 185 29T208 43T235 78T260 137Q263 149 265 151T282 153Q302 153 302 143Q302 135 293 112T268 61T223 11T161 -11Q129 -11 102 10T74 74Q74 91 79 106T122 220Q160 321 166 341T173 380Q173 404 156 404H154Q124 404 99 371T61 287Q60 286 59 284T58 281T56 279T53 278T49 278T41 278H27Q21 284 21 287Z"></path>
<path stroke-width="1" id="E1-MJMATHI-6A" d="M297 596Q297 627 318 644T361 661Q378 661 389 651T403 623Q403 595 384 576T340 557Q322 557 310 567T297 596ZM288 376Q288 405 262 405Q240 405 220 393T185 362T161 325T144 293L137 279Q135 278 121 278H107Q101 284 101 286T105 299Q126 348 164 391T252 441Q253 441 260 441T272 442Q296 441 316 432Q341 418 354 401T367 348V332L318 133Q267 -67 264 -75Q246 -125 194 -164T75 -204Q25 -204 7 -183T-12 -137Q-12 -110 7 -91T53 -71Q70 -71 82 -81T95 -112Q95 -148 63 -167Q69 -168 77 -168Q111 -168 139 -140T182 -74L193 -32Q204 11 219 72T251 197T278 308T289 365Q289 372 288 376Z"></path>
<path stroke-width="1" id="E1-MJMATHI-70" d="M23 287Q24 290 25 295T30 317T40 348T55 381T75 411T101 433T134 442Q209 442 230 378L240 387Q302 442 358 442Q423 442 460 395T497 281Q497 173 421 82T249 -10Q227 -10 210 -4Q199 1 187 11T168 28L161 36Q160 35 139 -51T118 -138Q118 -144 126 -145T163 -148H188Q194 -155 194 -157T191 -175Q188 -187 185 -190T172 -194Q170 -194 161 -194T127 -193T65 -192Q-5 -192 -24 -194H-32Q-39 -187 -39 -183Q-37 -156 -26 -148H-6Q28 -147 33 -136Q36 -130 94 103T155 350Q156 355 156 364Q156 405 131 405Q109 405 94 377T71 316T59 280Q57 278 43 278H29Q23 284 23 287ZM178 102Q200 26 252 26Q282 26 310 49T356 107Q374 141 392 215T411 325V331Q411 405 350 405Q339 405 328 402T306 393T286 380T269 365T254 350T243 336T235 326L232 322Q232 321 229 308T218 264T204 212Q178 106 178 102Z"></path>
<path stroke-width="1" id="E1-MJMAIN-5D" d="M22 710V750H159V-250H22V-210H119V710H22Z"></path>
<path stroke-width="1" id="E1-MJSZ2-5B" d="M224 -649V1150H455V1099H275V-598H455V-649H224Z"></path>
<path stroke-width="1" id="E1-MJSZ2-5D" d="M16 1099V1150H247V-649H16V-598H196V1099H16Z"></path>
<path stroke-width="1" id="E1-MJMATHI-54" d="M40 437Q21 437 21 445Q21 450 37 501T71 602L88 651Q93 669 101 677H569H659Q691 677 697 676T704 667Q704 661 687 553T668 444Q668 437 649 437Q640 437 637 437T631 442L629 445Q629 451 635 490T641 551Q641 586 628 604T573 629Q568 630 515 631Q469 631 457 630T439 622Q438 621 368 343T298 60Q298 48 386 46Q418 46 427 45T436 36Q436 31 433 22Q429 4 424 1L422 0Q419 0 415 0Q410 0 363 1T228 2Q99 2 64 0H49Q43 6 43 9T45 27Q49 40 55 46H83H94Q174 46 189 55Q190 56 191 56Q196 59 201 76T241 233Q258 301 269 344Q339 619 339 625Q339 630 310 630H279Q212 630 191 624Q146 614 121 583T67 467Q60 445 57 441T43 437H40Z"></path>
<path stroke-width="1" id="E1-MJMAINB-47" d="M465 -10Q281 -10 173 88T64 343Q64 413 85 471T143 568T217 631T298 670Q371 697 449 697Q452 697 459 697T470 696Q502 696 531 690T582 675T618 658T644 641T656 632L732 695Q734 697 745 697Q758 697 761 692T765 668V627V489V449Q765 428 761 424T741 419H731H724Q705 419 702 422T695 444Q683 520 631 577T495 635Q364 635 295 563Q261 528 247 477T232 343Q232 296 236 260T256 185T296 120T366 76T472 52Q481 51 498 51Q544 51 573 67T607 108Q608 111 608 164V214H464V276H479Q506 273 680 273Q816 273 834 276H845V214H765V113V51Q765 16 763 8T750 0Q742 2 709 16T658 40L648 46Q592 -10 465 -10Z"></path>
<path stroke-width="1" id="E1-MJMATHI-79" d="M21 287Q21 301 36 335T84 406T158 442Q199 442 224 419T250 355Q248 336 247 334Q247 331 231 288T198 191T182 105Q182 62 196 45T238 27Q261 27 281 38T312 61T339 94Q339 95 344 114T358 173T377 247Q415 397 419 404Q432 431 462 431Q475 431 483 424T494 412T496 403Q496 390 447 193T391 -23Q363 -106 294 -155T156 -205Q111 -205 77 -183T43 -117Q43 -95 50 -80T69 -58T89 -48T106 -45Q150 -45 150 -87Q150 -107 138 -122T115 -142T102 -147L99 -148Q101 -153 118 -160T152 -167H160Q177 -167 186 -165Q219 -156 247 -127T290 -65T313 -9T321 21L315 17Q309 13 296 6T270 -6Q250 -11 231 -11Q185 -11 150 11T104 82Q103 89 103 113Q103 170 138 262T173 379Q173 380 173 381Q173 390 173 393T169 400T158 404H154Q131 404 112 385T82 344T65 302T57 280Q55 278 41 278H27Q21 284 21 287Z"></path>
<path stroke-width="1" id="E1-MJMAIN-28" d="M94 250Q94 319 104 381T127 488T164 576T202 643T244 695T277 729T302 750H315H319Q333 750 333 741Q333 738 316 720T275 667T226 581T184 443T167 250T184 58T225 -81T274 -167T316 -220T333 -241Q333 -250 318 -250H315H302L274 -226Q180 -141 137 -14T94 250Z"></path>
<path stroke-width="1" id="E1-MJMATHI-6E" d="M21 287Q22 293 24 303T36 341T56 388T89 425T135 442Q171 442 195 424T225 390T231 369Q231 367 232 367L243 378Q304 442 382 442Q436 442 469 415T503 336T465 179T427 52Q427 26 444 26Q450 26 453 27Q482 32 505 65T540 145Q542 153 560 153Q580 153 580 145Q580 144 576 130Q568 101 554 73T508 17T439 -10Q392 -10 371 17T350 73Q350 92 386 193T423 345Q423 404 379 404H374Q288 404 229 303L222 291L189 157Q156 26 151 16Q138 -11 108 -11Q95 -11 87 -5T76 7T74 17Q74 30 112 180T152 343Q153 348 153 366Q153 405 129 405Q91 405 66 305Q60 285 60 284Q58 278 41 278H27Q21 284 21 287Z"></path>
<path stroke-width="1" id="E1-MJMAIN-2212" d="M84 237T84 250T98 270H679Q694 262 694 250T679 230H98Q84 237 84 250Z"></path>
<path stroke-width="1" id="E1-MJMAIN-29" d="M60 749L64 750Q69 750 74 750H86L114 726Q208 641 251 514T294 250Q294 182 284 119T261 12T224 -76T186 -143T145 -194T113 -227T90 -246Q87 -249 86 -250H74Q66 -250 63 -250T58 -247T55 -238Q56 -237 66 -225Q221 -64 221 250T66 725Q56 737 55 738Q55 746 60 749Z"></path>
<path stroke-width="1" id="E1-MJMATHI-67" d="M311 43Q296 30 267 15T206 0Q143 0 105 45T66 160Q66 265 143 353T314 442Q361 442 401 394L404 398Q406 401 409 404T418 412T431 419T447 422Q461 422 470 413T480 394Q480 379 423 152T363 -80Q345 -134 286 -169T151 -205Q10 -205 10 -137Q10 -111 28 -91T74 -71Q89 -71 102 -80T116 -111Q116 -121 114 -130T107 -144T99 -154T92 -162L90 -164H91Q101 -167 151 -167Q189 -167 211 -155Q234 -144 254 -122T282 -75Q288 -56 298 -13Q311 35 311 43ZM384 328L380 339Q377 350 375 354T369 368T359 382T346 393T328 402T306 405Q262 405 221 352Q191 313 171 233T151 117Q151 38 213 38Q269 38 323 108L331 118L384 328Z"></path>
<path stroke-width="1" id="E1-MJMAIN-7C" d="M139 -249H137Q125 -249 119 -235V251L120 737Q130 750 139 750Q152 750 159 735V-235Q151 -249 141 -249H139Z"></path>
<path stroke-width="1" id="E1-MJMAIN-22EE" d="M78 30Q78 54 95 72T138 90Q162 90 180 74T199 31Q199 6 182 -12T139 -30T96 -13T78 30ZM78 440Q78 464 95 482T138 500Q162 500 180 484T199 441Q199 416 182 398T139 380T96 397T78 440ZM78 840Q78 864 95 882T138 900Q162 900 180 884T199 841Q199 816 182 798T139 780T96 797T78 840Z"></path>
<path stroke-width="1" id="E1-MJSZ4-23A1" d="M319 -645V1154H666V1070H403V-645H319Z"></path>
<path stroke-width="1" id="E1-MJSZ4-23A3" d="M319 -644V1155H403V-560H666V-644H319Z"></path>
<path stroke-width="1" id="E1-MJSZ4-23A2" d="M319 0V602H403V0H319Z"></path>
<path stroke-width="1" id="E1-MJSZ4-23A4" d="M0 1070V1154H347V-645H263V1070H0Z"></path>
<path stroke-width="1" id="E1-MJSZ4-23A6" d="M263 -560V1155H347V-644H0V-560H263Z"></path>
<path stroke-width="1" id="E1-MJSZ4-23A5" d="M263 0V602H347V0H263Z"></path>
<path stroke-width="1" id="E1-MJMAINB-7A" d="M48 262Q48 264 54 349T60 436V444H252Q289 444 336 444T394 445Q441 445 450 441T459 418Q459 406 458 404Q456 399 327 229T194 55H237Q260 56 268 56T297 58T325 65T348 77T370 98T384 128T395 170Q400 197 400 216Q400 217 431 217H462V211Q461 208 453 108T444 6V0H245Q46 0 43 2Q32 7 32 28V33Q32 41 40 52T84 112Q129 170 164 217L298 393H256Q189 392 165 380Q124 360 115 303Q110 280 110 256Q110 254 79 254H48V262Z"></path>
<path stroke-width="1" id="E1-MJMATHI-7A" d="M347 338Q337 338 294 349T231 360Q211 360 197 356T174 346T162 335T155 324L153 320Q150 317 138 317Q117 317 117 325Q117 330 120 339Q133 378 163 406T229 440Q241 442 246 442Q271 442 291 425T329 392T367 375Q389 375 411 408T434 441Q435 442 449 442H462Q468 436 468 434Q468 430 463 420T449 399T432 377T418 358L411 349Q368 298 275 214T160 106L148 94L163 93Q185 93 227 82T290 71Q328 71 360 90T402 140Q406 149 409 151T424 153Q443 153 443 143Q443 138 442 134Q425 72 376 31T278 -11Q252 -11 232 6T193 40T155 57Q111 57 76 -3Q70 -11 59 -11H54H41Q35 -5 35 -2Q35 13 93 84Q132 129 225 214T340 322Q352 338 347 338Z"></path>
<path stroke-width="1" id="E1-MJMAIN-2B" d="M56 237T56 250T70 270H369V420L370 570Q380 583 389 583Q402 583 409 568V270H707Q722 262 722 250T707 230H409V-68Q401 -82 391 -82H389H387Q375 -82 369 -68V230H70Q56 237 56 250Z"></path>
<path stroke-width="1" id="E1-MJMATHI-4E" d="M234 637Q231 637 226 637Q201 637 196 638T191 649Q191 676 202 682Q204 683 299 683Q376 683 387 683T401 677Q612 181 616 168L670 381Q723 592 723 606Q723 633 659 637Q635 637 635 648Q635 650 637 660Q641 676 643 679T653 683Q656 683 684 682T767 680Q817 680 843 681T873 682Q888 682 888 672Q888 650 880 642Q878 637 858 637Q787 633 769 597L620 7Q618 0 599 0Q585 0 582 2Q579 5 453 305L326 604L261 344Q196 88 196 79Q201 46 268 46H278Q284 41 284 38T282 19Q278 6 272 0H259Q228 2 151 2Q123 2 100 2T63 2T46 1Q31 1 31 10Q31 14 34 26T39 40Q41 46 62 46Q130 49 150 85Q154 91 221 362L289 634Q287 635 234 637Z"></path>
</defs>
<g stroke="currentColor" fill="currentColor" stroke-width="0" transform="matrix(1 0 0 -1 0 0)">
<g transform="translate(167,0)">
<g transform="translate(-11,0)">
<g transform="translate(279,3027)">
 <use xlink:href="#E1-MJMATHI-3B2" x="0" y="0"></use>
 <use xlink:href="#E1-MJMAIN-5E" x="124" y="283"></use>
</g>
 <use xlink:href="#E1-MJMAINB-47" x="0" y="-375"></use>
 <use xlink:href="#E1-MJMAINB-7A" x="393" y="-3609"></use>
</g>
<g transform="translate(894,0)">
<g transform="translate(0,3027)">
 <use xlink:href="#E1-MJMAIN-3D" x="277" y="0"></use>
<g transform="translate(1334,0)">
 <use xlink:href="#E1-MJSZ2-5B"></use>
<g transform="translate(639,0)">
<g transform="translate(-11,0)">
<g transform="translate(0,-52)">
 <use xlink:href="#E1-MJMATHI-3B2" x="0" y="0"></use>
 <use xlink:href="#E1-MJMAIN-5E" x="124" y="283"></use>
<g transform="translate(624,-231)">
 <use transform="scale(0.707)" xlink:href="#E1-MJMAIN-31"></use>
 <use transform="scale(0.707)" xlink:href="#E1-MJMAIN-31" x="500" y="0"></use>
 <use transform="scale(0.707)" xlink:href="#E1-MJMAIN-31" x="1001" y="0"></use>
</g>
</g>
</g>
<g transform="translate(2776,0)">
<g transform="translate(0,-52)">
 <use xlink:href="#E1-MJMATHI-3B2" x="0" y="0"></use>
 <use xlink:href="#E1-MJMAIN-5E" x="124" y="283"></use>
<g transform="translate(624,-231)">
 <use transform="scale(0.707)" xlink:href="#E1-MJMAIN-31"></use>
 <use transform="scale(0.707)" xlink:href="#E1-MJMAIN-31" x="500" y="0"></use>
 <use transform="scale(0.707)" xlink:href="#E1-MJMAIN-32" x="1001" y="0"></use>
</g>
</g>
</g>
 <use xlink:href="#E1-MJMAIN-22EF" x="5562" y="-52"></use>
<g transform="translate(7735,0)">
<g transform="translate(0,-52)">
 <use xlink:href="#E1-MJMATHI-3B2" x="0" y="0"></use>
 <use xlink:href="#E1-MJMAIN-5E" x="124" y="283"></use>
<g transform="translate(624,-231)">
 <use transform="scale(0.707)" xlink:href="#E1-MJMAIN-31"></use>
 <use transform="scale(0.707)" xlink:href="#E1-MJMAIN-31" x="500" y="0"></use>
 <use transform="scale(0.707)" xlink:href="#E1-MJMATHI-50" x="1001" y="0"></use>
</g>
</g>
</g>
<g transform="translate(10699,0)">
<g transform="translate(0,-52)">
 <use xlink:href="#E1-MJMATHI-3B2" x="0" y="0"></use>
 <use xlink:href="#E1-MJMAIN-5E" x="124" y="283"></use>
<g transform="translate(624,-231)">
 <use transform="scale(0.707)" xlink:href="#E1-MJMAIN-31"></use>
 <use transform="scale(0.707)" xlink:href="#E1-MJMAIN-32" x="500" y="0"></use>
 <use transform="scale(0.707)" xlink:href="#E1-MJMAIN-31" x="1001" y="0"></use>
</g>
</g>
</g>
 <use xlink:href="#E1-MJMAIN-22EF" x="13485" y="-52"></use>
<g transform="translate(15658,0)">
<g transform="translate(0,-52)">
 <use xlink:href="#E1-MJMATHI-3B2" x="0" y="0"></use>
 <use xlink:href="#E1-MJMAIN-5E" x="124" y="283"></use>
<g transform="translate(624,-231)">
 <use transform="scale(0.707)" xlink:href="#E1-MJMATHI-69" x="0" y="0"></use>
 <use transform="scale(0.707)" xlink:href="#E1-MJMATHI-6A" x="345" y="0"></use>
 <use transform="scale(0.707)" xlink:href="#E1-MJMATHI-70" x="758" y="0"></use>
</g>
</g>
</g>
 <use xlink:href="#E1-MJMAIN-22EF" x="18275" y="-52"></use>
</g>
 <use xlink:href="#E1-MJSZ2-5D" x="20254" y="-1"></use>
 <use transform="scale(0.707)" xlink:href="#E1-MJMATHI-54" x="29312" y="1240"></use>
</g>
</g>
<g transform="translate(0,-375)">
 <use xlink:href="#E1-MJMAIN-3D" x="277" y="0"></use>
<g transform="translate(1334,0)">
<g transform="translate(0,2451)">
 <use xlink:href="#E1-MJSZ4-23A1" x="0" y="-1155"></use>
<g transform="translate(0,-2650.5082781456954) scale(1,1.4917218543046358)">
 <use xlink:href="#E1-MJSZ4-23A2"></use>
</g>
 <use xlink:href="#E1-MJSZ4-23A3" x="0" y="-3758"></use>
</g>
<g transform="translate(834,0)">
<g transform="translate(-11,0)">
<g transform="translate(0,1651)">
 <use xlink:href="#E1-MJMATHI-79" x="0" y="0"></use>
 <use xlink:href="#E1-MJMAIN-28" x="497" y="0"></use>
 <use xlink:href="#E1-MJMATHI-6E" x="887" y="0"></use>
 <use xlink:href="#E1-MJMAIN-2212" x="1709" y="0"></use>
 <use xlink:href="#E1-MJMAIN-31" x="2710" y="0"></use>
 <use xlink:href="#E1-MJMAIN-29" x="3210" y="0"></use>
<g transform="translate(3600,0)">
 <use xlink:href="#E1-MJMATHI-67" x="0" y="0"></use>
 <use transform="scale(0.707)" xlink:href="#E1-MJMAIN-31" x="675" y="-213"></use>
</g>
 <use xlink:href="#E1-MJMAIN-28" x="4531" y="0"></use>
 <use xlink:href="#E1-MJMAIN-7C" x="4921" y="0"></use>
 <use xlink:href="#E1-MJMATHI-79" x="5199" y="0"></use>
 <use xlink:href="#E1-MJMAIN-28" x="5697" y="0"></use>
 <use xlink:href="#E1-MJMATHI-6E" x="6086" y="0"></use>
 <use xlink:href="#E1-MJMAIN-2212" x="6909" y="0"></use>
 <use xlink:href="#E1-MJMAIN-31" x="7910" y="0"></use>
 <use xlink:href="#E1-MJMAIN-29" x="8410" y="0"></use>
 <use xlink:href="#E1-MJMAIN-7C" x="8800" y="0"></use>
 <use xlink:href="#E1-MJMAIN-29" x="9078" y="0"></use>
</g>
<g transform="translate(1723,200)">
 <use xlink:href="#E1-MJMATHI-79" x="0" y="0"></use>
 <use xlink:href="#E1-MJMAIN-28" x="497" y="0"></use>
 <use xlink:href="#E1-MJMATHI-6E" x="887" y="0"></use>
 <use xlink:href="#E1-MJMAIN-29" x="1487" y="0"></use>
<g transform="translate(1877,0)">
 <use xlink:href="#E1-MJMATHI-67" x="0" y="0"></use>
 <use transform="scale(0.707)" xlink:href="#E1-MJMAIN-31" x="675" y="-213"></use>
</g>
 <use xlink:href="#E1-MJMAIN-28" x="2808" y="0"></use>
 <use xlink:href="#E1-MJMAIN-7C" x="3197" y="0"></use>
 <use xlink:href="#E1-MJMATHI-79" x="3476" y="0"></use>
 <use xlink:href="#E1-MJMAIN-28" x="3973" y="0"></use>
 <use xlink:href="#E1-MJMATHI-6E" x="4363" y="0"></use>
 <use xlink:href="#E1-MJMAIN-29" x="4963" y="0"></use>
 <use xlink:href="#E1-MJMAIN-7C" x="5353" y="0"></use>
 <use xlink:href="#E1-MJMAIN-29" x="5631" y="0"></use>
</g>
 <use xlink:href="#E1-MJMAIN-22EE" x="4594" y="-1752"></use>
</g>
<g transform="translate(10457,0)">
<g transform="translate(0,1651)">
 <use xlink:href="#E1-MJMATHI-79" x="0" y="0"></use>
 <use xlink:href="#E1-MJMAIN-28" x="497" y="0"></use>
 <use xlink:href="#E1-MJMATHI-6E" x="887" y="0"></use>
 <use xlink:href="#E1-MJMAIN-2212" x="1709" y="0"></use>
 <use xlink:href="#E1-MJMAIN-31" x="2710" y="0"></use>
 <use xlink:href="#E1-MJMAIN-29" x="3210" y="0"></use>
<g transform="translate(3600,0)">
 <use xlink:href="#E1-MJMATHI-67" x="0" y="0"></use>
 <use transform="scale(0.707)" xlink:href="#E1-MJMAIN-32" x="675" y="-213"></use>
</g>
 <use xlink:href="#E1-MJMAIN-28" x="4531" y="0"></use>
 <use xlink:href="#E1-MJMAIN-7C" x="4921" y="0"></use>
 <use xlink:href="#E1-MJMATHI-79" x="5199" y="0"></use>
 <use xlink:href="#E1-MJMAIN-28" x="5697" y="0"></use>
 <use xlink:href="#E1-MJMATHI-6E" x="6086" y="0"></use>
 <use xlink:href="#E1-MJMAIN-2212" x="6909" y="0"></use>
 <use xlink:href="#E1-MJMAIN-31" x="7910" y="0"></use>
 <use xlink:href="#E1-MJMAIN-29" x="8410" y="0"></use>
 <use xlink:href="#E1-MJMAIN-7C" x="8800" y="0"></use>
 <use xlink:href="#E1-MJMAIN-29" x="9078" y="0"></use>
</g>
<g transform="translate(1723,200)">
 <use xlink:href="#E1-MJMATHI-79" x="0" y="0"></use>
 <use xlink:href="#E1-MJMAIN-28" x="497" y="0"></use>
 <use xlink:href="#E1-MJMATHI-6E" x="887" y="0"></use>
 <use xlink:href="#E1-MJMAIN-29" x="1487" y="0"></use>
<g transform="translate(1877,0)">
 <use xlink:href="#E1-MJMATHI-67" x="0" y="0"></use>
 <use transform="scale(0.707)" xlink:href="#E1-MJMAIN-32" x="675" y="-213"></use>
</g>
 <use xlink:href="#E1-MJMAIN-28" x="2808" y="0"></use>
 <use xlink:href="#E1-MJMAIN-7C" x="3197" y="0"></use>
 <use xlink:href="#E1-MJMATHI-79" x="3476" y="0"></use>
 <use xlink:href="#E1-MJMAIN-28" x="3973" y="0"></use>
 <use xlink:href="#E1-MJMATHI-6E" x="4363" y="0"></use>
 <use xlink:href="#E1-MJMAIN-29" x="4963" y="0"></use>
 <use xlink:href="#E1-MJMAIN-7C" x="5353" y="0"></use>
 <use xlink:href="#E1-MJMAIN-29" x="5631" y="0"></use>
</g>
 <use xlink:href="#E1-MJMAIN-22EE" x="4594" y="-1752"></use>
</g>
<g transform="translate(20926,0)">
 <use xlink:href="#E1-MJMAIN-22EF" x="0" y="1651"></use>
 <use xlink:href="#E1-MJMAIN-22EF" x="0" y="200"></use>
 <use xlink:href="#E1-MJMAIN-22EE" x="447" y="-1752"></use>
</g>
<g transform="translate(23098,0)">
<g transform="translate(0,1651)">
 <use xlink:href="#E1-MJMATHI-79" x="0" y="0"></use>
 <use xlink:href="#E1-MJMAIN-28" x="497" y="0"></use>
 <use xlink:href="#E1-MJMATHI-6E" x="887" y="0"></use>
 <use xlink:href="#E1-MJMAIN-2212" x="1709" y="0"></use>
 <use xlink:href="#E1-MJMAIN-31" x="2710" y="0"></use>
 <use xlink:href="#E1-MJMAIN-29" x="3210" y="0"></use>
<g transform="translate(3600,0)">
 <use xlink:href="#E1-MJMATHI-67" x="0" y="0"></use>
 <use transform="scale(0.707)" xlink:href="#E1-MJMATHI-50" x="675" y="-213"></use>
</g>
 <use xlink:href="#E1-MJMAIN-28" x="4709" y="0"></use>
 <use xlink:href="#E1-MJMAIN-7C" x="5098" y="0"></use>
 <use xlink:href="#E1-MJMATHI-79" x="5377" y="0"></use>
 <use xlink:href="#E1-MJMAIN-28" x="5874" y="0"></use>
 <use xlink:href="#E1-MJMATHI-6E" x="6264" y="0"></use>
 <use xlink:href="#E1-MJMAIN-2212" x="7087" y="0"></use>
 <use xlink:href="#E1-MJMAIN-31" x="8087" y="0"></use>
 <use xlink:href="#E1-MJMAIN-29" x="8588" y="0"></use>
 <use xlink:href="#E1-MJMAIN-7C" x="8977" y="0"></use>
 <use xlink:href="#E1-MJMAIN-29" x="9256" y="0"></use>
</g>
<g transform="translate(1723,200)">
 <use xlink:href="#E1-MJMATHI-79" x="0" y="0"></use>
 <use xlink:href="#E1-MJMAIN-28" x="497" y="0"></use>
 <use xlink:href="#E1-MJMATHI-6E" x="887" y="0"></use>
 <use xlink:href="#E1-MJMAIN-29" x="1487" y="0"></use>
<g transform="translate(1877,0)">
 <use xlink:href="#E1-MJMATHI-67" x="0" y="0"></use>
 <use transform="scale(0.707)" xlink:href="#E1-MJMATHI-50" x="675" y="-213"></use>
</g>
 <use xlink:href="#E1-MJMAIN-28" x="2985" y="0"></use>
 <use xlink:href="#E1-MJMAIN-7C" x="3375" y="0"></use>
 <use xlink:href="#E1-MJMATHI-79" x="3653" y="0"></use>
 <use xlink:href="#E1-MJMAIN-28" x="4151" y="0"></use>
 <use xlink:href="#E1-MJMATHI-6E" x="4540" y="0"></use>
 <use xlink:href="#E1-MJMAIN-29" x="5141" y="0"></use>
 <use xlink:href="#E1-MJMAIN-7C" x="5530" y="0"></use>
 <use xlink:href="#E1-MJMAIN-29" x="5809" y="0"></use>
</g>
 <use xlink:href="#E1-MJMAIN-22EE" x="4683" y="-1752"></use>
</g>
<g transform="translate(33744,0)">
<g transform="translate(0,1651)">
 <use xlink:href="#E1-MJMATHI-79" x="0" y="0"></use>
 <use xlink:href="#E1-MJMAIN-28" x="497" y="0"></use>
 <use xlink:href="#E1-MJMATHI-6E" x="887" y="0"></use>
 <use xlink:href="#E1-MJMAIN-2212" x="1709" y="0"></use>
 <use xlink:href="#E1-MJMAIN-31" x="2710" y="0"></use>
 <use xlink:href="#E1-MJMAIN-29" x="3210" y="0"></use>
<g transform="translate(3600,0)">
 <use xlink:href="#E1-MJMATHI-67" x="0" y="0"></use>
 <use transform="scale(0.707)" xlink:href="#E1-MJMAIN-31" x="675" y="-213"></use>
</g>
 <use xlink:href="#E1-MJMAIN-28" x="4531" y="0"></use>
 <use xlink:href="#E1-MJMAIN-7C" x="4921" y="0"></use>
 <use xlink:href="#E1-MJMATHI-79" x="5199" y="0"></use>
 <use xlink:href="#E1-MJMAIN-28" x="5697" y="0"></use>
 <use xlink:href="#E1-MJMATHI-6E" x="6086" y="0"></use>
 <use xlink:href="#E1-MJMAIN-2212" x="6909" y="0"></use>
 <use xlink:href="#E1-MJMAIN-32" x="7910" y="0"></use>
 <use xlink:href="#E1-MJMAIN-29" x="8410" y="0"></use>
 <use xlink:href="#E1-MJMAIN-7C" x="8800" y="0"></use>
 <use xlink:href="#E1-MJMAIN-29" x="9078" y="0"></use>
</g>
<g transform="translate(861,200)">
 <use xlink:href="#E1-MJMATHI-79" x="0" y="0"></use>
 <use xlink:href="#E1-MJMAIN-28" x="497" y="0"></use>
 <use xlink:href="#E1-MJMATHI-6E" x="887" y="0"></use>
 <use xlink:href="#E1-MJMAIN-29" x="1487" y="0"></use>
<g transform="translate(1877,0)">
 <use xlink:href="#E1-MJMATHI-67" x="0" y="0"></use>
 <use transform="scale(0.707)" xlink:href="#E1-MJMAIN-31" x="675" y="-213"></use>
</g>
 <use xlink:href="#E1-MJMAIN-28" x="2808" y="0"></use>
 <use xlink:href="#E1-MJMAIN-7C" x="3197" y="0"></use>
 <use xlink:href="#E1-MJMATHI-79" x="3476" y="0"></use>
 <use xlink:href="#E1-MJMAIN-28" x="3973" y="0"></use>
 <use xlink:href="#E1-MJMATHI-6E" x="4363" y="0"></use>
 <use xlink:href="#E1-MJMAIN-2212" x="5186" y="0"></use>
 <use xlink:href="#E1-MJMAIN-31" x="6186" y="0"></use>
 <use xlink:href="#E1-MJMAIN-29" x="6687" y="0"></use>
 <use xlink:href="#E1-MJMAIN-7C" x="7076" y="0"></use>
 <use xlink:href="#E1-MJMAIN-29" x="7355" y="0"></use>
</g>
 <use xlink:href="#E1-MJMAIN-22EE" x="4594" y="-1752"></use>
</g>
<g transform="translate(44212,0)">
 <use xlink:href="#E1-MJMAIN-22EF" x="0" y="1651"></use>
 <use xlink:href="#E1-MJMAIN-22EF" x="0" y="200"></use>
 <use xlink:href="#E1-MJMAIN-22EE" x="447" y="-1752"></use>
</g>
</g>
<g transform="translate(46386,2451)">
 <use xlink:href="#E1-MJSZ4-23A4" x="0" y="-1155"></use>
<g transform="translate(0,-2650.5082781456954) scale(1,1.4917218543046358)">
 <use xlink:href="#E1-MJSZ4-23A5"></use>
</g>
 <use xlink:href="#E1-MJSZ4-23A6" x="0" y="-3758"></use>
</g>
</g>
</g>
<g transform="translate(0,-3609)">
 <use xlink:href="#E1-MJMAIN-3D" x="277" y="0"></use>
<g transform="translate(1334,0)">
 <use xlink:href="#E1-MJMAIN-5B"></use>
<g transform="translate(445,0)">
<g transform="translate(-11,0)">
<g transform="translate(0,-25)">
 <use xlink:href="#E1-MJMATHI-7A" x="0" y="0"></use>
 <use xlink:href="#E1-MJMAIN-28" x="468" y="0"></use>
 <use xlink:href="#E1-MJMATHI-6E" x="858" y="0"></use>
 <use xlink:href="#E1-MJMAIN-29" x="1458" y="0"></use>
</g>
</g>
 <use xlink:href="#E1-MJMAIN-22EF" x="2837" y="-25"></use>
<g transform="translate(5010,0)">
<g transform="translate(0,-25)">
 <use xlink:href="#E1-MJMATHI-7A" x="0" y="0"></use>
 <use xlink:href="#E1-MJMAIN-28" x="468" y="0"></use>
 <use xlink:href="#E1-MJMATHI-6E" x="858" y="0"></use>
 <use xlink:href="#E1-MJMAIN-2B" x="1680" y="0"></use>
 <use xlink:href="#E1-MJMATHI-4E" x="2681" y="0"></use>
 <use xlink:href="#E1-MJMAIN-2212" x="3792" y="0"></use>
 <use xlink:href="#E1-MJMAIN-31" x="4792" y="0"></use>
 <use xlink:href="#E1-MJMAIN-29" x="5293" y="0"></use>
</g>
</g>
</g>
 <use xlink:href="#E1-MJMAIN-5D" x="11305" y="0"></use>
 <use transform="scale(0.707)" xlink:href="#E1-MJMATHI-54" x="16382" y="710"></use>
</g>
</g>
</g>
</g>
</g>
</svg>